<svg xmlns="http://www.w3.org/2000/svg" width="39.031" height="36" viewBox="0 0 39.031 36">
  <defs>
    <style>
      .cls-1 {
        fill: #fff;
        fill-rule: evenodd;
      }
    </style>
  </defs>
  <path id="logo" class="cls-1" d="M89.422,59.5A8.5,8.5,0,1,1,80.812,68,8.555,8.555,0,0,1,89.422,59.5Zm0,2.781A5.719,5.719,0,1,1,83.625,68,5.758,5.758,0,0,1,89.422,62.281Zm3.623-.667c0.029-.05-4.122-2.559-4.764-3.081a10.127,10.127,0,0,0-6.325-2.176c-0.117,0-.233,0-0.349.005A8.1,8.1,0,0,0,75.83,69.892L89.492,82.644l13.662-12.753a8,8,0,0,0,1.416-8.661,8.085,8.085,0,0,0-2.545-3.268c-1.3-.977.525-4.266,2.47-2.735a11.749,11.749,0,0,1,3.512,4.571,11.569,11.569,0,0,1-2.121,12.588c-0.032.035-.065,0.069-0.1,0.1L90.781,86.495a1.9,1.9,0,0,1-2.578,0L73.2,72.488c-0.035-.032-0.068-0.066-0.1-0.1A11.572,11.572,0,0,1,70.976,59.8a11.759,11.759,0,0,1,10.506-7.092c0.158,0,.316-0.008.475-0.008a14.1,14.1,0,0,1,7.536,2.184c3.431,2.277,8.384,7.264,8.384,12.649C97.875,68.808,93.045,61.614,93.045,61.614ZM99.453,51a2.313,2.313,0,1,1-2.359,2.313A2.336,2.336,0,0,1,99.453,51Z" transform="translate(-69.969 -51)"/>
</svg>
