<svg xmlns="http://www.w3.org/2000/svg" width="97" height="94" viewBox="0 0 97 94">
  <defs>
    <style>
      .cls-1 {
        fill: #d83767;
        fill-rule: evenodd;
      }
    </style>
  </defs>
  <path id="плей" class="cls-1" d="M1316.52,511.538L1255.63,479.3a19.291,19.291,0,0,0-19.19.559,19.5,19.5,0,0,0-9.44,16.8v54.692a19.476,19.476,0,0,0,28.63,17.362l60.88-32.241A14.125,14.125,0,0,0,1316.52,511.538Zm-5.23,14.977-60.88,32.241a8.112,8.112,0,0,1-8.18-.238,8.21,8.21,0,0,1-4.03-7.167V496.659a8.282,8.282,0,0,1,12.21-7.4l60.88,32.241A2.841,2.841,0,0,1,1311.29,526.515Z" transform="translate(-1227 -477)"/>
</svg>
